ISO-10303-21;
HEADER;
/* Generated by software containing ST-Developer
 * from STEP Tools, Inc. (www.steptools.com) 
 */

FILE_DESCRIPTION(
/* description */ (''),
/* implementation_level */ '2;1');

FILE_NAME(
/* name */ 'coax.stp',
/* time_stamp */ '2026-02-15T23:26:05-03:00',
/* author */ ('Gir'),
/* organization */ (''),
/* preprocessor_version */ 'ST-DEVELOPER v20.1',
/* originating_system */ 'Autodesk Inventor 2026',
/* authorisation */ '');

FILE_SCHEMA (('AUTOMOTIVE_DESIGN { 1 0 10303 214 3 1 1 }'));
ENDSEC;

DATA;
#10=MECHANICAL_DESIGN_GEOMETRIC_PRESENTATION_REPRESENTATION('',(#13),#1103);
#11=SHAPE_REPRESENTATION_RELATIONSHIP('SRR','None',#1110,#12);
#12=ADVANCED_BREP_SHAPE_REPRESENTATION('',(#14),#1102);
#13=STYLED_ITEM('',(#1119),#14);
#14=MANIFOLD_SOLID_BREP('Solid19',#535);
#15=TOROIDAL_SURFACE('',#580,14.7500000000001,8.25);
#16=TOROIDAL_SURFACE('',#589,14.7500000000001,8.25);
#17=FACE_BOUND('',#80,.T.);
#18=FACE_BOUND('',#83,.T.);
#19=FACE_BOUND('',#85,.T.);
#20=FACE_BOUND('',#87,.T.);
#21=FACE_BOUND('',#91,.T.);
#22=FACE_BOUND('',#92,.T.);
#23=FACE_BOUND('',#95,.T.);
#24=FACE_BOUND('',#101,.T.);
#25=FACE_BOUND('',#107,.T.);
#26=FACE_BOUND('',#109,.T.);
#27=PLANE('',#565);
#28=PLANE('',#573);
#29=PLANE('',#577);
#30=PLANE('',#579);
#31=PLANE('',#592);
#32=PLANE('',#593);
#33=PLANE('',#594);
#34=PLANE('',#595);
#35=PLANE('',#601);
#36=PLANE('',#602);
#37=PLANE('',#606);
#38=PLANE('',#610);
#39=PLANE('',#612);
#40=PLANE('',#613);
#41=PLANE('',#614);
#42=FACE_OUTER_BOUND('',#71,.T.);
#43=FACE_OUTER_BOUND('',#72,.T.);
#44=FACE_OUTER_BOUND('',#73,.T.);
#45=FACE_OUTER_BOUND('',#74,.T.);
#46=FACE_OUTER_BOUND('',#75,.T.);
#47=FACE_OUTER_BOUND('',#76,.T.);
#48=FACE_OUTER_BOUND('',#77,.T.);
#49=FACE_OUTER_BOUND('',#78,.T.);
#50=FACE_OUTER_BOUND('',#79,.T.);
#51=FACE_OUTER_BOUND('',#81,.T.);
#52=FACE_OUTER_BOUND('',#82,.T.);
#53=FACE_OUTER_BOUND('',#84,.T.);
#54=FACE_OUTER_BOUND('',#86,.T.);
#55=FACE_OUTER_BOUND('',#88,.T.);
#56=FACE_OUTER_BOUND('',#89,.T.);
#57=FACE_OUTER_BOUND('',#90,.T.);
#58=FACE_OUTER_BOUND('',#93,.T.);
#59=FACE_OUTER_BOUND('',#94,.T.);
#60=FACE_OUTER_BOUND('',#96,.T.);
#61=FACE_OUTER_BOUND('',#97,.T.);
#62=FACE_OUTER_BOUND('',#98,.T.);
#63=FACE_OUTER_BOUND('',#99,.T.);
#64=FACE_OUTER_BOUND('',#100,.T.);
#65=FACE_OUTER_BOUND('',#102,.T.);
#66=FACE_OUTER_BOUND('',#103,.T.);
#67=FACE_OUTER_BOUND('',#104,.T.);
#68=FACE_OUTER_BOUND('',#105,.T.);
#69=FACE_OUTER_BOUND('',#106,.T.);
#70=FACE_OUTER_BOUND('',#108,.T.);
#71=EDGE_LOOP('',(#346,#347,#348,#349));
#72=EDGE_LOOP('',(#350,#351,#352,#353,#354));
#73=EDGE_LOOP('',(#355,#356,#357,#358));
#74=EDGE_LOOP('',(#359,#360,#361,#362,#363,#364));
#75=EDGE_LOOP('',(#365,#366,#367,#368));
#76=EDGE_LOOP('',(#369,#370,#371,#372));
#77=EDGE_LOOP('',(#373,#374,#375,#376,#377,#378,#379));
#78=EDGE_LOOP('',(#380,#381,#382,#383));
#79=EDGE_LOOP('',(#384,#385,#386,#387,#388,#389));
#80=EDGE_LOOP('',(#390));
#81=EDGE_LOOP('',(#391,#392,#393,#394,#395,#396,#397));
#82=EDGE_LOOP('',(#398,#399,#400,#401));
#83=EDGE_LOOP('',(#402));
#84=EDGE_LOOP('',(#403,#404,#405,#406,#407,#408,#409,#410,#411,#412));
#85=EDGE_LOOP('',(#413,#414,#415,#416));
#86=EDGE_LOOP('',(#417,#418,#419,#420));
#87=EDGE_LOOP('',(#421,#422));
#88=EDGE_LOOP('',(#423,#424,#425,#426));
#89=EDGE_LOOP('',(#427,#428));
#90=EDGE_LOOP('',(#429,#430,#431,#432));
#91=EDGE_LOOP('',(#433));
#92=EDGE_LOOP('',(#434));
#93=EDGE_LOOP('',(#435,#436));
#94=EDGE_LOOP('',(#437,#438,#439,#440));
#95=EDGE_LOOP('',(#441));
#96=EDGE_LOOP('',(#442,#443,#444,#445));
#97=EDGE_LOOP('',(#446,#447,#448,#449));
#98=EDGE_LOOP('',(#450,#451,#452,#453));
#99=EDGE_LOOP('',(#454,#455,#456,#457));
#100=EDGE_LOOP('',(#458,#459,#460,#461));
#101=EDGE_LOOP('',(#462,#463,#464,#465));
#102=EDGE_LOOP('',(#466,#467,#468,#469));
#103=EDGE_LOOP('',(#470,#471,#472,#473,#474));
#104=EDGE_LOOP('',(#475,#476,#477,#478));
#105=EDGE_LOOP('',(#479,#480,#481,#482,#483));
#106=EDGE_LOOP('',(#484,#485,#486,#487));
#107=EDGE_LOOP('',(#488));
#108=EDGE_LOOP('',(#489,#490,#491,#492));
#109=EDGE_LOOP('',(#493));
#110=B_SPLINE_CURVE_WITH_KNOTS('',3,(#776,#777,#778,#779,#780,#781,#782,
#783,#784,#785,#786,#787,#788,#789,#790,#791,#792,#793,#794,#795,#796,#797,
#798,#799,#800,#801,#802,#803,#804,#805,#806,#807,#808,#809,#810,#811,#812,
#813,#814,#815,#816,#817,#818,#819,#820,#821,#822,#823,#824,#825,#826,#827,
#828,#829,#830,#831,#832,#833,#834,#835,#836,#837),.UNSPECIFIED.,.T.,.F.,
(4,2,2,2,2,2,2,2,2,2,2,2,2,2,2,2,2,2,2,2,2,2,2,2,2,2,2,2,2,2,4),(-1.35618439565531,
-1.35541313408756,-1.35072303888441,-1.34340595979523,-1.32267111450876,
-1.27020394249591,-1.21557989783158,-1.12139443459024,-1.01856083522298,
-0.943901098631207,-0.880591782257871,-0.820214480807874,-0.763826478462881,
-0.720486220586355,-0.699805926780274,-0.689218216189065,-0.680779750494727,
-0.671338486296825,-0.655818179657922,-0.609434439421117,-0.544681199515733,
-0.474384462521979,-0.400177010921914,-0.304770115028014,-0.192559345362528,
-0.115535177012754,-0.0657358916815797,-0.0276535067175552,-0.0109847692785657,
-0.00451054024581123,0.),.UNSPECIFIED.);
#111=B_SPLINE_CURVE_WITH_KNOTS('',3,(#844,#845,#846,#847,#848,#849,#850,
#851,#852,#853,#854,#855,#856,#857,#858,#859,#860,#861,#862,#863,#864,#865,
#866,#867,#868,#869,#870,#871,#872,#873,#874,#875,#876,#877),
 .UNSPECIFIED.,.F.,.F.,(4,2,2,2,2,2,2,2,2,2,2,2,2,2,2,2,4),(-1.35618439459788,
-1.35541313303056,-1.35072303783479,-1.34340595875636,-1.32267111349932,
-1.27020394155823,-1.21557989696573,-1.12139443384276,-1.01856083459906,
-0.94390109809299,-0.880591781788966,-0.820214480401853,-0.763826478112579,
-0.720486220276602,-0.699805926488746,-0.689218215906303,-0.683515667426905),
 .UNSPECIFIED.);
#112=B_SPLINE_CURVE_WITH_KNOTS('',3,(#878,#879,#880,#881,#882,#883,#884,
#885,#886,#887,#888,#889,#890,#891,#892,#893,#894,#895,#896,#897,#898,#899,
#900,#901,#902,#903,#904,#905,#906,#907,#908,#909),.UNSPECIFIED.,.F.,.F.,
(4,2,2,2,2,2,2,2,2,2,2,2,2,2,2,4),(-0.683515667426905,-0.680779750218505,
-0.671338486027439,-0.655818179398987,-0.609434439190882,-0.544681199322153,
-0.474384462364395,-0.400177010798355,-0.304770114943101,-0.192559345317089,
-0.115535176990313,-0.0657358916713224,-0.0276535067146019,-0.0109847692779319,
-0.00451054024569579,0.),.UNSPECIFIED.);
#113=B_SPLINE_CURVE_WITH_KNOTS('',3,(#946,#947,#948,#949,#950,#951,#952,
#953,#954,#955,#956,#957,#958,#959),.UNSPECIFIED.,.F.,.F.,(4,2,2,2,2,2,
4),(4.0520836546109,4.19452604102329,4.33696842743567,4.49705584666947,
4.65714326590326,5.11338733448093,5.5696314030586),.UNSPECIFIED.);
#114=B_SPLINE_CURVE_WITH_KNOTS('',3,(#972,#973,#974,#975,#976,#977,#978,
#979,#980,#981,#982,#983,#984,#985),.UNSPECIFIED.,.F.,.F.,(4,2,2,2,2,2,
4),(0.,0.456244068577672,0.912488137155343,1.07257555638914,1.23266297562293,
1.37510536203532,1.5175477484477),.UNSPECIFIED.);
#115=B_SPLINE_CURVE_WITH_KNOTS('',3,(#994,#995,#996,#997,#998,#999,#1000,
#1001,#1002,#1003,#1004,#1005,#1006,#1007),.UNSPECIFIED.,.F.,.F.,(4,2,2,
2,2,2,4),(4.0520836546109,4.19452604102329,4.33696842743567,4.49705584666947,
4.65714326590326,5.11338733448093,5.5696314030586),.UNSPECIFIED.);
#116=B_SPLINE_CURVE_WITH_KNOTS('',3,(#1011,#1012,#1013,#1014,#1015,#1016,
#1017,#1018,#1019,#1020,#1021,#1022,#1023,#1024),.UNSPECIFIED.,.F.,.F.,
(4,2,2,2,2,2,4),(0.,0.456244068577671,0.912488137155343,1.07257555638914,
1.23266297562293,1.37510536203532,1.5175477484477),.UNSPECIFIED.);
#117=LINE('',#775,#156);
#118=LINE('',#842,#157);
#119=LINE('',#915,#158);
#120=LINE('',#918,#159);
#121=LINE('',#925,#160);
#122=LINE('',#928,#161);
#123=LINE('',#932,#162);
#124=LINE('',#936,#163);
#125=LINE('',#939,#164);
#126=LINE('',#941,#165);
#127=LINE('',#943,#166);
#128=LINE('',#945,#167);
#129=LINE('',#964,#168);
#130=LINE('',#968,#169);
#131=LINE('',#987,#170);
#132=LINE('',#989,#171);
#133=LINE('',#990,#172);
#134=LINE('',#1028,#173);
#135=LINE('',#1029,#174);
#136=LINE('',#1033,#175);
#137=LINE('',#1039,#176);
#138=LINE('',#1042,#177);
#139=LINE('',#1047,#178);
#140=LINE('',#1049,#179);
#141=LINE('',#1053,#180);
#142=LINE('',#1056,#181);
#143=LINE('',#1064,#182);
#144=LINE('',#1067,#183);
#145=LINE('',#1070,#184);
#146=LINE('',#1072,#185);
#147=LINE('',#1073,#186);
#148=LINE('',#1076,#187);
#149=LINE('',#1078,#188);
#150=LINE('',#1079,#189);
#151=LINE('',#1085,#190);
#152=LINE('',#1088,#191);
#153=LINE('',#1092,#192);
#154=LINE('',#1094,#193);
#155=LINE('',#1096,#194);
#156=VECTOR('',#621,2.);
#157=VECTOR('',#626,2.);
#158=VECTOR('',#631,10.);
#159=VECTOR('',#634,10.);
#160=VECTOR('',#641,10.);
#161=VECTOR('',#644,10.);
#162=VECTOR('',#649,10.);
#163=VECTOR('',#654,10.);
#164=VECTOR('',#657,10.);
#165=VECTOR('',#658,10.);
#166=VECTOR('',#659,10.);
#167=VECTOR('',#660,10.);
#168=VECTOR('',#665,2.25);
#169=VECTOR('',#670,10.);
#170=VECTOR('',#675,10.);
#171=VECTOR('',#676,10.);
#172=VECTOR('',#677,10.);
#173=VECTOR('',#686,10.);
#174=VECTOR('',#687,6.50000000000009);
#175=VECTOR('',#692,10.);
#176=VECTOR('',#697,10.);
#177=VECTOR('',#700,10.);
#178=VECTOR('',#709,10.);
#179=VECTOR('',#712,10.);
#180=VECTOR('',#717,10.);
#181=VECTOR('',#720,10.);
#182=VECTOR('',#727,10.);
#183=VECTOR('',#730,10.);
#184=VECTOR('',#733,10.);
#185=VECTOR('',#734,10.);
#186=VECTOR('',#735,10.);
#187=VECTOR('',#738,10.);
#188=VECTOR('',#739,10.);
#189=VECTOR('',#740,10.);
#190=VECTOR('',#749,10.);
#191=VECTOR('',#752,10.);
#192=VECTOR('',#757,3.5);
#193=VECTOR('',#760,10.);
#194=VECTOR('',#763,10.);
#195=CIRCLE('',#559,2.);
#196=CIRCLE('',#561,2.);
#197=CIRCLE('',#563,6.);
#198=CIRCLE('',#564,6.);
#199=CIRCLE('',#566,7.);
#200=CIRCLE('',#567,6.);
#201=CIRCLE('',#568,14.7500000000001);
#202=CIRCLE('',#570,7.);
#203=CIRCLE('',#572,6.);
#204=CIRCLE('',#575,2.25);
#205=CIRCLE('',#576,2.25);
#206=CIRCLE('',#578,6.50000000000009);
#207=CIRCLE('',#581,6.50000000000009);
#208=CIRCLE('',#582,14.7500000000001);
#209=CIRCLE('',#584,6.50000000000009);
#210=CIRCLE('',#585,6.50000000000009);
#211=CIRCLE('',#586,6.50000000000009);
#212=CIRCLE('',#587,6.50000000000009);
#213=CIRCLE('',#588,6.50000000000009);
#214=CIRCLE('',#591,6.50000000000009);
#215=CIRCLE('',#596,6.50000000000009);
#216=CIRCLE('',#597,3.5);
#217=CIRCLE('',#599,3.74999999999955);
#218=CIRCLE('',#600,3.74999999999955);
#219=CIRCLE('',#604,2.24999999999953);
#220=CIRCLE('',#605,2.24999999999953);
#221=CIRCLE('',#607,6.50000000000009);
#222=CIRCLE('',#609,3.5);
#223=VERTEX_POINT('',#772);
#224=VERTEX_POINT('',#774);
#225=VERTEX_POINT('',#839);
#226=VERTEX_POINT('',#841);
#227=VERTEX_POINT('',#843);
#228=VERTEX_POINT('',#911);
#229=VERTEX_POINT('',#912);
#230=VERTEX_POINT('',#914);
#231=VERTEX_POINT('',#916);
#232=VERTEX_POINT('',#920);
#233=VERTEX_POINT('',#922);
#234=VERTEX_POINT('',#924);
#235=VERTEX_POINT('',#926);
#236=VERTEX_POINT('',#930);
#237=VERTEX_POINT('',#934);
#238=VERTEX_POINT('',#938);
#239=VERTEX_POINT('',#940);
#240=VERTEX_POINT('',#942);
#241=VERTEX_POINT('',#944);
#242=VERTEX_POINT('',#961);
#243=VERTEX_POINT('',#963);
#244=VERTEX_POINT('',#967);
#245=VERTEX_POINT('',#971);
#246=VERTEX_POINT('',#986);
#247=VERTEX_POINT('',#988);
#248=VERTEX_POINT('',#992);
#249=VERTEX_POINT('',#993);
#250=VERTEX_POINT('',#1008);
#251=VERTEX_POINT('',#1010);
#252=VERTEX_POINT('',#1027);
#253=VERTEX_POINT('',#1032);
#254=VERTEX_POINT('',#1035);
#255=VERTEX_POINT('',#1036);
#256=VERTEX_POINT('',#1038);
#257=VERTEX_POINT('',#1040);
#258=VERTEX_POINT('',#1052);
#259=VERTEX_POINT('',#1054);
#260=VERTEX_POINT('',#1057);
#261=VERTEX_POINT('',#1060);
#262=VERTEX_POINT('',#1061);
#263=VERTEX_POINT('',#1063);
#264=VERTEX_POINT('',#1065);
#265=VERTEX_POINT('',#1069);
#266=VERTEX_POINT('',#1071);
#267=VERTEX_POINT('',#1075);
#268=VERTEX_POINT('',#1077);
#269=VERTEX_POINT('',#1084);
#270=VERTEX_POINT('',#1086);
#271=VERTEX_POINT('',#1090);
#272=EDGE_CURVE('',#223,#223,#195,.T.);
#273=EDGE_CURVE('',#223,#224,#117,.T.);
#274=EDGE_CURVE('',#224,#224,#110,.T.);
#275=EDGE_CURVE('',#225,#225,#196,.T.);
#276=EDGE_CURVE('',#225,#226,#118,.T.);
#277=EDGE_CURVE('',#227,#226,#111,.T.);
#278=EDGE_CURVE('',#226,#227,#112,.T.);
#279=EDGE_CURVE('',#228,#229,#197,.T.);
#280=EDGE_CURVE('',#229,#230,#119,.T.);
#281=EDGE_CURVE('',#230,#231,#198,.F.);
#282=EDGE_CURVE('',#231,#228,#120,.T.);
#283=EDGE_CURVE('',#228,#232,#199,.T.);
#284=EDGE_CURVE('',#233,#232,#200,.T.);
#285=EDGE_CURVE('',#233,#234,#121,.T.);
#286=EDGE_CURVE('',#235,#234,#201,.T.);
#287=EDGE_CURVE('',#235,#229,#122,.T.);
#288=EDGE_CURVE('',#231,#236,#202,.T.);
#289=EDGE_CURVE('',#232,#236,#123,.T.);
#290=EDGE_CURVE('',#236,#237,#203,.F.);
#291=EDGE_CURVE('',#237,#233,#124,.T.);
#292=EDGE_CURVE('',#237,#238,#125,.T.);
#293=EDGE_CURVE('',#239,#238,#126,.T.);
#294=EDGE_CURVE('',#239,#240,#127,.T.);
#295=EDGE_CURVE('',#240,#241,#128,.T.);
#296=EDGE_CURVE('',#234,#241,#113,.T.);
#297=EDGE_CURVE('',#242,#242,#204,.T.);
#298=EDGE_CURVE('',#242,#243,#129,.T.);
#299=EDGE_CURVE('',#243,#243,#205,.T.);
#300=EDGE_CURVE('',#244,#230,#130,.T.);
#301=EDGE_CURVE('',#238,#244,#206,.T.);
#302=EDGE_CURVE('',#245,#235,#114,.T.);
#303=EDGE_CURVE('',#246,#245,#131,.T.);
#304=EDGE_CURVE('',#246,#247,#132,.T.);
#305=EDGE_CURVE('',#247,#244,#133,.T.);
#306=EDGE_CURVE('',#248,#249,#115,.T.);
#307=EDGE_CURVE('',#249,#250,#207,.T.);
#308=EDGE_CURVE('',#250,#251,#116,.T.);
#309=EDGE_CURVE('',#251,#248,#208,.T.);
#310=EDGE_CURVE('',#250,#252,#134,.T.);
#311=EDGE_CURVE('',#249,#245,#135,.T.);
#312=EDGE_CURVE('',#241,#245,#209,.T.);
#313=EDGE_CURVE('',#240,#246,#210,.T.);
#314=EDGE_CURVE('',#249,#253,#136,.T.);
#315=EDGE_CURVE('',#252,#253,#211,.T.);
#316=EDGE_CURVE('',#254,#255,#212,.T.);
#317=EDGE_CURVE('',#256,#254,#137,.T.);
#318=EDGE_CURVE('',#256,#257,#213,.T.);
#319=EDGE_CURVE('',#257,#255,#138,.T.);
#320=EDGE_CURVE('',#247,#239,#214,.T.);
#321=EDGE_CURVE('',#255,#254,#139,.T.);
#322=EDGE_CURVE('',#256,#257,#140,.T.);
#323=EDGE_CURVE('',#258,#251,#141,.T.);
#324=EDGE_CURVE('',#259,#258,#215,.T.);
#325=EDGE_CURVE('',#248,#259,#142,.T.);
#326=EDGE_CURVE('',#260,#260,#216,.T.);
#327=EDGE_CURVE('',#261,#262,#217,.T.);
#328=EDGE_CURVE('',#261,#263,#143,.T.);
#329=EDGE_CURVE('',#264,#263,#218,.T.);
#330=EDGE_CURVE('',#262,#264,#144,.T.);
#331=EDGE_CURVE('',#265,#261,#145,.T.);
#332=EDGE_CURVE('',#265,#266,#146,.T.);
#333=EDGE_CURVE('',#263,#266,#147,.T.);
#334=EDGE_CURVE('',#262,#267,#148,.T.);
#335=EDGE_CURVE('',#268,#264,#149,.T.);
#336=EDGE_CURVE('',#267,#268,#150,.T.);
#337=EDGE_CURVE('',#267,#265,#219,.T.);
#338=EDGE_CURVE('',#266,#268,#220,.T.);
#339=EDGE_CURVE('',#253,#269,#151,.T.);
#340=EDGE_CURVE('',#269,#270,#221,.T.);
#341=EDGE_CURVE('',#270,#252,#152,.T.);
#342=EDGE_CURVE('',#271,#271,#222,.T.);
#343=EDGE_CURVE('',#271,#260,#153,.T.);
#344=EDGE_CURVE('',#258,#270,#154,.T.);
#345=EDGE_CURVE('',#259,#269,#155,.T.);
#346=ORIENTED_EDGE('',*,*,#272,.F.);
#347=ORIENTED_EDGE('',*,*,#273,.T.);
#348=ORIENTED_EDGE('',*,*,#274,.F.);
#349=ORIENTED_EDGE('',*,*,#273,.F.);
#350=ORIENTED_EDGE('',*,*,#275,.F.);
#351=ORIENTED_EDGE('',*,*,#276,.T.);
#352=ORIENTED_EDGE('',*,*,#277,.F.);
#353=ORIENTED_EDGE('',*,*,#278,.F.);
#354=ORIENTED_EDGE('',*,*,#276,.F.);
#355=ORIENTED_EDGE('',*,*,#279,.T.);
#356=ORIENTED_EDGE('',*,*,#280,.T.);
#357=ORIENTED_EDGE('',*,*,#281,.T.);
#358=ORIENTED_EDGE('',*,*,#282,.T.);
#359=ORIENTED_EDGE('',*,*,#279,.F.);
#360=ORIENTED_EDGE('',*,*,#283,.T.);
#361=ORIENTED_EDGE('',*,*,#284,.F.);
#362=ORIENTED_EDGE('',*,*,#285,.T.);
#363=ORIENTED_EDGE('',*,*,#286,.F.);
#364=ORIENTED_EDGE('',*,*,#287,.T.);
#365=ORIENTED_EDGE('',*,*,#282,.F.);
#366=ORIENTED_EDGE('',*,*,#288,.T.);
#367=ORIENTED_EDGE('',*,*,#289,.F.);
#368=ORIENTED_EDGE('',*,*,#283,.F.);
#369=ORIENTED_EDGE('',*,*,#284,.T.);
#370=ORIENTED_EDGE('',*,*,#289,.T.);
#371=ORIENTED_EDGE('',*,*,#290,.T.);
#372=ORIENTED_EDGE('',*,*,#291,.T.);
#373=ORIENTED_EDGE('',*,*,#291,.F.);
#374=ORIENTED_EDGE('',*,*,#292,.T.);
#375=ORIENTED_EDGE('',*,*,#293,.F.);
#376=ORIENTED_EDGE('',*,*,#294,.T.);
#377=ORIENTED_EDGE('',*,*,#295,.T.);
#378=ORIENTED_EDGE('',*,*,#296,.F.);
#379=ORIENTED_EDGE('',*,*,#285,.F.);
#380=ORIENTED_EDGE('',*,*,#297,.F.);
#381=ORIENTED_EDGE('',*,*,#298,.T.);
#382=ORIENTED_EDGE('',*,*,#299,.F.);
#383=ORIENTED_EDGE('',*,*,#298,.F.);
#384=ORIENTED_EDGE('',*,*,#300,.F.);
#385=ORIENTED_EDGE('',*,*,#301,.F.);
#386=ORIENTED_EDGE('',*,*,#292,.F.);
#387=ORIENTED_EDGE('',*,*,#290,.F.);
#388=ORIENTED_EDGE('',*,*,#288,.F.);
#389=ORIENTED_EDGE('',*,*,#281,.F.);
#390=ORIENTED_EDGE('',*,*,#297,.T.);
#391=ORIENTED_EDGE('',*,*,#280,.F.);
#392=ORIENTED_EDGE('',*,*,#287,.F.);
#393=ORIENTED_EDGE('',*,*,#302,.F.);
#394=ORIENTED_EDGE('',*,*,#303,.F.);
#395=ORIENTED_EDGE('',*,*,#304,.T.);
#396=ORIENTED_EDGE('',*,*,#305,.T.);
#397=ORIENTED_EDGE('',*,*,#300,.T.);
#398=ORIENTED_EDGE('',*,*,#306,.T.);
#399=ORIENTED_EDGE('',*,*,#307,.T.);
#400=ORIENTED_EDGE('',*,*,#308,.T.);
#401=ORIENTED_EDGE('',*,*,#309,.T.);
#402=ORIENTED_EDGE('',*,*,#274,.T.);
#403=ORIENTED_EDGE('',*,*,#310,.F.);
#404=ORIENTED_EDGE('',*,*,#307,.F.);
#405=ORIENTED_EDGE('',*,*,#311,.T.);
#406=ORIENTED_EDGE('',*,*,#312,.F.);
#407=ORIENTED_EDGE('',*,*,#295,.F.);
#408=ORIENTED_EDGE('',*,*,#313,.T.);
#409=ORIENTED_EDGE('',*,*,#303,.T.);
#410=ORIENTED_EDGE('',*,*,#311,.F.);
#411=ORIENTED_EDGE('',*,*,#314,.T.);
#412=ORIENTED_EDGE('',*,*,#315,.F.);
#413=ORIENTED_EDGE('',*,*,#316,.F.);
#414=ORIENTED_EDGE('',*,*,#317,.F.);
#415=ORIENTED_EDGE('',*,*,#318,.T.);
#416=ORIENTED_EDGE('',*,*,#319,.T.);
#417=ORIENTED_EDGE('',*,*,#296,.T.);
#418=ORIENTED_EDGE('',*,*,#312,.T.);
#419=ORIENTED_EDGE('',*,*,#302,.T.);
#420=ORIENTED_EDGE('',*,*,#286,.T.);
#421=ORIENTED_EDGE('',*,*,#277,.T.);
#422=ORIENTED_EDGE('',*,*,#278,.T.);
#423=ORIENTED_EDGE('',*,*,#301,.T.);
#424=ORIENTED_EDGE('',*,*,#305,.F.);
#425=ORIENTED_EDGE('',*,*,#320,.T.);
#426=ORIENTED_EDGE('',*,*,#293,.T.);
#427=ORIENTED_EDGE('',*,*,#316,.T.);
#428=ORIENTED_EDGE('',*,*,#321,.T.);
#429=ORIENTED_EDGE('',*,*,#321,.F.);
#430=ORIENTED_EDGE('',*,*,#319,.F.);
#431=ORIENTED_EDGE('',*,*,#322,.F.);
#432=ORIENTED_EDGE('',*,*,#317,.T.);
#433=ORIENTED_EDGE('',*,*,#272,.T.);
#434=ORIENTED_EDGE('',*,*,#275,.T.);
#435=ORIENTED_EDGE('',*,*,#322,.T.);
#436=ORIENTED_EDGE('',*,*,#318,.F.);
#437=ORIENTED_EDGE('',*,*,#309,.F.);
#438=ORIENTED_EDGE('',*,*,#323,.F.);
#439=ORIENTED_EDGE('',*,*,#324,.F.);
#440=ORIENTED_EDGE('',*,*,#325,.F.);
#441=ORIENTED_EDGE('',*,*,#326,.F.);
#442=ORIENTED_EDGE('',*,*,#327,.F.);
#443=ORIENTED_EDGE('',*,*,#328,.T.);
#444=ORIENTED_EDGE('',*,*,#329,.F.);
#445=ORIENTED_EDGE('',*,*,#330,.F.);
#446=ORIENTED_EDGE('',*,*,#331,.F.);
#447=ORIENTED_EDGE('',*,*,#332,.T.);
#448=ORIENTED_EDGE('',*,*,#333,.F.);
#449=ORIENTED_EDGE('',*,*,#328,.F.);
#450=ORIENTED_EDGE('',*,*,#334,.F.);
#451=ORIENTED_EDGE('',*,*,#330,.T.);
#452=ORIENTED_EDGE('',*,*,#335,.F.);
#453=ORIENTED_EDGE('',*,*,#336,.F.);
#454=ORIENTED_EDGE('',*,*,#337,.F.);
#455=ORIENTED_EDGE('',*,*,#336,.T.);
#456=ORIENTED_EDGE('',*,*,#338,.F.);
#457=ORIENTED_EDGE('',*,*,#332,.F.);
#458=ORIENTED_EDGE('',*,*,#339,.T.);
#459=ORIENTED_EDGE('',*,*,#340,.T.);
#460=ORIENTED_EDGE('',*,*,#341,.T.);
#461=ORIENTED_EDGE('',*,*,#315,.T.);
#462=ORIENTED_EDGE('',*,*,#338,.T.);
#463=ORIENTED_EDGE('',*,*,#335,.T.);
#464=ORIENTED_EDGE('',*,*,#329,.T.);
#465=ORIENTED_EDGE('',*,*,#333,.T.);
#466=ORIENTED_EDGE('',*,*,#342,.F.);
#467=ORIENTED_EDGE('',*,*,#343,.T.);
#468=ORIENTED_EDGE('',*,*,#326,.T.);
#469=ORIENTED_EDGE('',*,*,#343,.F.);
#470=ORIENTED_EDGE('',*,*,#323,.T.);
#471=ORIENTED_EDGE('',*,*,#308,.F.);
#472=ORIENTED_EDGE('',*,*,#310,.T.);
#473=ORIENTED_EDGE('',*,*,#341,.F.);
#474=ORIENTED_EDGE('',*,*,#344,.F.);
#475=ORIENTED_EDGE('',*,*,#324,.T.);
#476=ORIENTED_EDGE('',*,*,#344,.T.);
#477=ORIENTED_EDGE('',*,*,#340,.F.);
#478=ORIENTED_EDGE('',*,*,#345,.F.);
#479=ORIENTED_EDGE('',*,*,#325,.T.);
#480=ORIENTED_EDGE('',*,*,#345,.T.);
#481=ORIENTED_EDGE('',*,*,#339,.F.);
#482=ORIENTED_EDGE('',*,*,#314,.F.);
#483=ORIENTED_EDGE('',*,*,#306,.F.);
#484=ORIENTED_EDGE('',*,*,#331,.T.);
#485=ORIENTED_EDGE('',*,*,#327,.T.);
#486=ORIENTED_EDGE('',*,*,#334,.T.);
#487=ORIENTED_EDGE('',*,*,#337,.T.);
#488=ORIENTED_EDGE('',*,*,#342,.T.);
#489=ORIENTED_EDGE('',*,*,#320,.F.);
#490=ORIENTED_EDGE('',*,*,#304,.F.);
#491=ORIENTED_EDGE('',*,*,#313,.F.);
#492=ORIENTED_EDGE('',*,*,#294,.F.);
#493=ORIENTED_EDGE('',*,*,#299,.T.);
#494=CYLINDRICAL_SURFACE('',#558,2.);
#495=CYLINDRICAL_SURFACE('',#560,2.);
#496=CYLINDRICAL_SURFACE('',#562,6.);
#497=CYLINDRICAL_SURFACE('',#569,7.);
#498=CYLINDRICAL_SURFACE('',#571,6.);
#499=CYLINDRICAL_SURFACE('',#574,2.25);
#500=CYLINDRICAL_SURFACE('',#583,6.50000000000009);
#501=CYLINDRICAL_SURFACE('',#590,6.50000000000009);
#502=CYLINDRICAL_SURFACE('',#598,3.74999999999955);
#503=CYLINDRICAL_SURFACE('',#603,2.24999999999953);
#504=CYLINDRICAL_SURFACE('',#608,3.5);
#505=CYLINDRICAL_SURFACE('',#611,6.50000000000009);
#506=ADVANCED_FACE('',(#42),#494,.F.);
#507=ADVANCED_FACE('',(#43),#495,.F.);
#508=ADVANCED_FACE('',(#44),#496,.T.);
#509=ADVANCED_FACE('',(#45),#27,.F.);
#510=ADVANCED_FACE('',(#46),#497,.F.);
#511=ADVANCED_FACE('',(#47),#498,.T.);
#512=ADVANCED_FACE('',(#48),#28,.T.);
#513=ADVANCED_FACE('',(#49),#499,.F.);
#514=ADVANCED_FACE('',(#50,#17),#29,.T.);
#515=ADVANCED_FACE('',(#51),#30,.T.);
#516=ADVANCED_FACE('',(#52,#18),#15,.F.);
#517=ADVANCED_FACE('',(#53,#19),#500,.T.);
#518=ADVANCED_FACE('',(#54,#20),#16,.F.);
#519=ADVANCED_FACE('',(#55),#501,.T.);
#520=ADVANCED_FACE('',(#56),#31,.F.);
#521=ADVANCED_FACE('',(#57,#21,#22),#32,.T.);
#522=ADVANCED_FACE('',(#58),#33,.F.);
#523=ADVANCED_FACE('',(#59,#23),#34,.F.);
#524=ADVANCED_FACE('',(#60),#502,.F.);
#525=ADVANCED_FACE('',(#61),#35,.T.);
#526=ADVANCED_FACE('',(#62),#36,.T.);
#527=ADVANCED_FACE('',(#63),#503,.F.);
#528=ADVANCED_FACE('',(#64,#24),#37,.T.);
#529=ADVANCED_FACE('',(#65),#504,.F.);
#530=ADVANCED_FACE('',(#66),#38,.T.);
#531=ADVANCED_FACE('',(#67),#505,.T.);
#532=ADVANCED_FACE('',(#68),#39,.T.);
#533=ADVANCED_FACE('',(#69,#25),#40,.T.);
#534=ADVANCED_FACE('',(#70,#26),#41,.T.);
#535=CLOSED_SHELL('',(#506,#507,#508,#509,#510,#511,#512,#513,#514,#515,
#516,#517,#518,#519,#520,#521,#522,#523,#524,#525,#526,#527,#528,#529,#530,
#531,#532,#533,#534));
#536=DERIVED_UNIT_ELEMENT(#539,1.);
#537=DERIVED_UNIT_ELEMENT(#1105,-3.);
#538=DIMENSIONAL_EXPONENTS(0.,1.,0.,0.,0.,0.,0.);
#539=(
CONVERSION_BASED_UNIT('gram',#541)
MASS_UNIT()
NAMED_UNIT(#538)
);
#540=(
MASS_UNIT()
NAMED_UNIT(*)
SI_UNIT(.KILO.,.GRAM.)
);
#541=MASS_MEASURE_WITH_UNIT(MASS_MEASURE(0.001),#540);
#542=DERIVED_UNIT((#536,#537));
#543=MEASURE_REPRESENTATION_ITEM('density measure',
POSITIVE_RATIO_MEASURE(1.),#542);
#544=PROPERTY_DEFINITION_REPRESENTATION(#549,#546);
#545=PROPERTY_DEFINITION_REPRESENTATION(#550,#547);
#546=REPRESENTATION('material name',(#548),#1102);
#547=REPRESENTATION('density',(#543),#1102);
#548=DESCRIPTIVE_REPRESENTATION_ITEM('Generic','Generic');
#549=PROPERTY_DEFINITION('material property','material name',#1112);
#550=PROPERTY_DEFINITION('material property','density of part',#1112);
#551=DATE_TIME_ROLE('creation_date');
#552=APPLIED_DATE_AND_TIME_ASSIGNMENT(#553,#551,(#1112));
#553=DATE_AND_TIME(#554,#555);
#554=CALENDAR_DATE(2022,21,11);
#555=LOCAL_TIME(0,0,0.,#556);
#556=COORDINATED_UNIVERSAL_TIME_OFFSET(0,0,.BEHIND.);
#557=AXIS2_PLACEMENT_3D('',#770,#615,#616);
#558=AXIS2_PLACEMENT_3D('',#771,#617,#618);
#559=AXIS2_PLACEMENT_3D('',#773,#619,#620);
#560=AXIS2_PLACEMENT_3D('',#838,#622,#623);
#561=AXIS2_PLACEMENT_3D('',#840,#624,#625);
#562=AXIS2_PLACEMENT_3D('',#910,#627,#628);
#563=AXIS2_PLACEMENT_3D('',#913,#629,#630);
#564=AXIS2_PLACEMENT_3D('',#917,#632,#633);
#565=AXIS2_PLACEMENT_3D('',#919,#635,#636);
#566=AXIS2_PLACEMENT_3D('',#921,#637,#638);
#567=AXIS2_PLACEMENT_3D('',#923,#639,#640);
#568=AXIS2_PLACEMENT_3D('',#927,#642,#643);
#569=AXIS2_PLACEMENT_3D('',#929,#645,#646);
#570=AXIS2_PLACEMENT_3D('',#931,#647,#648);
#571=AXIS2_PLACEMENT_3D('',#933,#650,#651);
#572=AXIS2_PLACEMENT_3D('',#935,#652,#653);
#573=AXIS2_PLACEMENT_3D('',#937,#655,#656);
#574=AXIS2_PLACEMENT_3D('',#960,#661,#662);
#575=AXIS2_PLACEMENT_3D('',#962,#663,#664);
#576=AXIS2_PLACEMENT_3D('',#965,#666,#667);
#577=AXIS2_PLACEMENT_3D('',#966,#668,#669);
#578=AXIS2_PLACEMENT_3D('',#969,#671,#672);
#579=AXIS2_PLACEMENT_3D('',#970,#673,#674);
#580=AXIS2_PLACEMENT_3D('',#991,#678,#679);
#581=AXIS2_PLACEMENT_3D('',#1009,#680,#681);
#582=AXIS2_PLACEMENT_3D('',#1025,#682,#683);
#583=AXIS2_PLACEMENT_3D('',#1026,#684,#685);
#584=AXIS2_PLACEMENT_3D('',#1030,#688,#689);
#585=AXIS2_PLACEMENT_3D('',#1031,#690,#691);
#586=AXIS2_PLACEMENT_3D('',#1034,#693,#694);
#587=AXIS2_PLACEMENT_3D('',#1037,#695,#696);
#588=AXIS2_PLACEMENT_3D('',#1041,#698,#699);
#589=AXIS2_PLACEMENT_3D('',#1043,#701,#702);
#590=AXIS2_PLACEMENT_3D('',#1044,#703,#704);
#591=AXIS2_PLACEMENT_3D('',#1045,#705,#706);
#592=AXIS2_PLACEMENT_3D('',#1046,#707,#708);
#593=AXIS2_PLACEMENT_3D('',#1048,#710,#711);
#594=AXIS2_PLACEMENT_3D('',#1050,#713,#714);
#595=AXIS2_PLACEMENT_3D('',#1051,#715,#716);
#596=AXIS2_PLACEMENT_3D('',#1055,#718,#719);
#597=AXIS2_PLACEMENT_3D('',#1058,#721,#722);
#598=AXIS2_PLACEMENT_3D('',#1059,#723,#724);
#599=AXIS2_PLACEMENT_3D('',#1062,#725,#726);
#600=AXIS2_PLACEMENT_3D('',#1066,#728,#729);
#601=AXIS2_PLACEMENT_3D('',#1068,#731,#732);
#602=AXIS2_PLACEMENT_3D('',#1074,#736,#737);
#603=AXIS2_PLACEMENT_3D('',#1080,#741,#742);
#604=AXIS2_PLACEMENT_3D('',#1081,#743,#744);
#605=AXIS2_PLACEMENT_3D('',#1082,#745,#746);
#606=AXIS2_PLACEMENT_3D('',#1083,#747,#748);
#607=AXIS2_PLACEMENT_3D('',#1087,#750,#751);
#608=AXIS2_PLACEMENT_3D('',#1089,#753,#754);
#609=AXIS2_PLACEMENT_3D('',#1091,#755,#756);
#610=AXIS2_PLACEMENT_3D('',#1093,#758,#759);
#611=AXIS2_PLACEMENT_3D('',#1095,#761,#762);
#612=AXIS2_PLACEMENT_3D('',#1097,#764,#765);
#613=AXIS2_PLACEMENT_3D('',#1098,#766,#767);
#614=AXIS2_PLACEMENT_3D('',#1099,#768,#769);
#615=DIRECTION('axis',(0.,0.,1.));
#616=DIRECTION('refdir',(1.,0.,0.));
#617=DIRECTION('center_axis',(-1.,0.,0.));
#618=DIRECTION('ref_axis',(0.,0.,-1.));
#619=DIRECTION('center_axis',(-1.,0.,0.));
#620=DIRECTION('ref_axis',(0.,0.,-1.));
#621=DIRECTION('',(-1.,0.,0.));
#622=DIRECTION('center_axis',(-1.,0.,0.));
#623=DIRECTION('ref_axis',(0.,0.,-1.));
#624=DIRECTION('center_axis',(-1.,0.,0.));
#625=DIRECTION('ref_axis',(0.,0.,-1.));
#626=DIRECTION('',(-1.,0.,0.));
#627=DIRECTION('center_axis',(0.,0.,1.));
#628=DIRECTION('ref_axis',(-0.720576692122896,0.693375245281532,0.));
#629=DIRECTION('center_axis',(0.,0.,-1.));
#630=DIRECTION('ref_axis',(-0.720576692122896,0.693375245281532,0.));
#631=DIRECTION('',(0.,0.,-1.));
#632=DIRECTION('center_axis',(0.,0.,-1.));
#633=DIRECTION('ref_axis',(-0.720576692122896,0.693375245281532,0.));
#634=DIRECTION('',(0.,0.,1.));
#635=DIRECTION('center_axis',(0.,0.,-1.));
#636=DIRECTION('ref_axis',(-1.,0.,0.));
#637=DIRECTION('center_axis',(0.,0.,-1.));
#638=DIRECTION('ref_axis',(1.,0.,0.));
#639=DIRECTION('center_axis',(0.,0.,-1.));
#640=DIRECTION('ref_axis',(-0.720576692122896,-0.693375245281532,0.));
#641=DIRECTION('',(1.,0.,0.));
#642=DIRECTION('center_axis',(0.,0.,1.));
#643=DIRECTION('ref_axis',(-1.,0.,0.));
#644=DIRECTION('',(-1.,0.,0.));
#645=DIRECTION('center_axis',(0.,0.,-1.));
#646=DIRECTION('ref_axis',(1.,0.,0.));
#647=DIRECTION('center_axis',(0.,0.,-1.));
#648=DIRECTION('ref_axis',(1.,0.,0.));
#649=DIRECTION('',(0.,0.,-1.));
#650=DIRECTION('center_axis',(0.,0.,-1.));
#651=DIRECTION('ref_axis',(-0.720576692122896,-0.693375245281532,0.));
#652=DIRECTION('center_axis',(0.,0.,-1.));
#653=DIRECTION('ref_axis',(-0.720576692122896,-0.693375245281532,0.));
#654=DIRECTION('',(0.,0.,1.));
#655=DIRECTION('center_axis',(0.,-1.,0.));
#656=DIRECTION('ref_axis',(-1.,0.,0.));
#657=DIRECTION('',(-1.,0.,0.));
#658=DIRECTION('',(0.,0.,1.));
#659=DIRECTION('',(1.,0.,0.));
#660=DIRECTION('',(0.,0.,1.));
#661=DIRECTION('center_axis',(0.,0.,-1.));
#662=DIRECTION('ref_axis',(1.,0.,0.));
#663=DIRECTION('center_axis',(0.,0.,-1.));
#664=DIRECTION('ref_axis',(1.,0.,0.));
#665=DIRECTION('',(0.,0.,-1.));
#666=DIRECTION('center_axis',(0.,0.,1.));
#667=DIRECTION('ref_axis',(1.,0.,0.));
#668=DIRECTION('center_axis',(0.,0.,1.));
#669=DIRECTION('ref_axis',(1.,0.,0.));
#670=DIRECTION('',(1.,0.,0.));
#671=DIRECTION('center_axis',(0.,0.,-1.));
#672=DIRECTION('ref_axis',(0.,1.,0.));
#673=DIRECTION('center_axis',(0.,1.,0.));
#674=DIRECTION('ref_axis',(1.,0.,0.));
#675=DIRECTION('',(0.,0.,1.));
#676=DIRECTION('',(-1.,0.,0.));
#677=DIRECTION('',(0.,0.,1.));
#678=DIRECTION('center_axis',(0.,0.,1.));
#679=DIRECTION('ref_axis',(-1.,0.,0.));
#680=DIRECTION('center_axis',(0.,0.,1.));
#681=DIRECTION('ref_axis',(-1.,0.,0.));
#682=DIRECTION('center_axis',(0.,0.,-1.));
#683=DIRECTION('ref_axis',(-1.,0.,0.));
#684=DIRECTION('center_axis',(0.,0.,1.));
#685=DIRECTION('ref_axis',(0.,-1.,0.));
#686=DIRECTION('',(0.,0.,1.));
#687=DIRECTION('',(0.,0.,-1.));
#688=DIRECTION('center_axis',(0.,0.,-1.));
#689=DIRECTION('ref_axis',(-1.,0.,0.));
#690=DIRECTION('center_axis',(0.,0.,1.));
#691=DIRECTION('ref_axis',(0.,-1.,0.));
#692=DIRECTION('',(0.,0.,1.));
#693=DIRECTION('center_axis',(0.,0.,1.));
#694=DIRECTION('ref_axis',(0.,-1.,0.));
#695=DIRECTION('center_axis',(0.,0.,1.));
#696=DIRECTION('ref_axis',(0.,-1.,0.));
#697=DIRECTION('',(0.,0.,-1.));
#698=DIRECTION('center_axis',(0.,0.,1.));
#699=DIRECTION('ref_axis',(0.,-1.,0.));
#700=DIRECTION('',(0.,0.,-1.));
#701=DIRECTION('center_axis',(0.,0.,-1.));
#702=DIRECTION('ref_axis',(-1.,0.,0.));
#703=DIRECTION('center_axis',(0.,0.,-1.));
#704=DIRECTION('ref_axis',(0.,1.,0.));
#705=DIRECTION('center_axis',(0.,0.,1.));
#706=DIRECTION('ref_axis',(0.,1.,0.));
#707=DIRECTION('center_axis',(0.,0.,-1.));
#708=DIRECTION('ref_axis',(-1.,0.,0.));
#709=DIRECTION('',(0.,-1.,0.));
#710=DIRECTION('center_axis',(1.,0.,0.));
#711=DIRECTION('ref_axis',(0.,-1.,0.));
#712=DIRECTION('',(0.,1.,0.));
#713=DIRECTION('center_axis',(0.,0.,1.));
#714=DIRECTION('ref_axis',(1.,0.,0.));
#715=DIRECTION('center_axis',(0.,0.,1.));
#716=DIRECTION('ref_axis',(1.,0.,0.));
#717=DIRECTION('',(1.,0.,0.));
#718=DIRECTION('center_axis',(0.,0.,1.));
#719=DIRECTION('ref_axis',(0.,1.,0.));
#720=DIRECTION('',(-1.,0.,0.));
#721=DIRECTION('center_axis',(0.,0.,-1.));
#722=DIRECTION('ref_axis',(-1.,0.,0.));
#723=DIRECTION('center_axis',(0.,0.,1.));
#724=DIRECTION('ref_axis',(-0.107142857142859,-0.994243636219647,0.));
#725=DIRECTION('center_axis',(0.,0.,1.));
#726=DIRECTION('ref_axis',(-0.107142857142859,-0.994243636219647,0.));
#727=DIRECTION('',(0.,0.,1.));
#728=DIRECTION('center_axis',(0.,0.,-1.));
#729=DIRECTION('ref_axis',(-0.107142857142859,-0.994243636219647,0.));
#730=DIRECTION('',(0.,0.,1.));
#731=DIRECTION('center_axis',(-0.107142857142923,-0.99424363621964,0.));
#732=DIRECTION('ref_axis',(0.99424363621964,-0.107142857142923,0.));
#733=DIRECTION('',(-0.99424363621964,0.107142857142923,0.));
#734=DIRECTION('',(0.,0.,1.));
#735=DIRECTION('',(0.99424363621964,-0.107142857142923,0.));
#736=DIRECTION('center_axis',(-0.1071428571416,0.994243636219782,0.));
#737=DIRECTION('ref_axis',(-0.994243636219782,-0.1071428571416,0.));
#738=DIRECTION('',(0.994243636219782,0.1071428571416,0.));
#739=DIRECTION('',(-0.994243636219782,-0.1071428571416,0.));
#740=DIRECTION('',(0.,0.,1.));
#741=DIRECTION('center_axis',(0.,0.,1.));
#742=DIRECTION('ref_axis',(-0.107142857201536,0.994243636213323,0.));
#743=DIRECTION('center_axis',(0.,0.,1.));
#744=DIRECTION('ref_axis',(-0.107142857201536,0.994243636213323,0.));
#745=DIRECTION('center_axis',(0.,0.,-1.));
#746=DIRECTION('ref_axis',(-0.107142857201536,0.994243636213323,0.));
#747=DIRECTION('center_axis',(0.,0.,1.));
#748=DIRECTION('ref_axis',(1.,0.,0.));
#749=DIRECTION('',(-1.,0.,0.));
#750=DIRECTION('center_axis',(0.,0.,1.));
#751=DIRECTION('ref_axis',(0.,1.,0.));
#752=DIRECTION('',(1.,0.,0.));
#753=DIRECTION('center_axis',(0.,0.,1.));
#754=DIRECTION('ref_axis',(-1.,0.,0.));
#755=DIRECTION('center_axis',(0.,0.,-1.));
#756=DIRECTION('ref_axis',(-1.,0.,0.));
#757=DIRECTION('',(0.,0.,-1.));
#758=DIRECTION('center_axis',(0.,-1.,0.));
#759=DIRECTION('ref_axis',(1.,0.,0.));
#760=DIRECTION('',(0.,0.,1.));
#761=DIRECTION('center_axis',(0.,0.,1.));
#762=DIRECTION('ref_axis',(0.,1.,0.));
#763=DIRECTION('',(0.,0.,1.));
#764=DIRECTION('center_axis',(0.,1.,0.));
#765=DIRECTION('ref_axis',(-1.,0.,0.));
#766=DIRECTION('center_axis',(0.,0.,1.));
#767=DIRECTION('ref_axis',(1.,0.,0.));
#768=DIRECTION('center_axis',(0.,0.,-1.));
#769=DIRECTION('ref_axis',(-1.,0.,0.));
#770=CARTESIAN_POINT('',(0.,0.,0.));
#771=CARTESIAN_POINT('Origin',(76.6823974727321,-127.100454322812,37.3695787906647));
#772=CARTESIAN_POINT('',(76.6823974727321,-127.100454322812,39.3695787906647));
#773=CARTESIAN_POINT('Origin',(76.6823974727321,-127.100454322812,37.3695787906647));
#774=CARTESIAN_POINT('',(64.0675622798665,-127.100454322812,39.3695787906647));
#775=CARTESIAN_POINT('',(76.6823974727321,-127.100454322812,39.3695787906647));
#776=CARTESIAN_POINT('Ctrl Pts',(64.0675622798665,-127.100454322812,39.3695787906647));
#777=CARTESIAN_POINT('Ctrl Pts',(64.0675622798665,-127.103025194705,39.3695787906647));
#778=CARTESIAN_POINT('Ctrl Pts',(64.067569091638,-127.105596042854,39.3695738336365));
#779=CARTESIAN_POINT('Ctrl Pts',(64.067665557957,-127.123800174449,39.3695036330978));
#780=CARTESIAN_POINT('Ctrl Pts',(64.0680001463316,-127.139405777736,39.3692601617586));
#781=CARTESIAN_POINT('Ctrl Pts',(64.0694943037186,-127.17928287933,39.3681725529623));
#782=CARTESIAN_POINT('Ctrl Pts',(64.0710104566817,-127.20349772797,39.3670687992286));
#783=CARTESIAN_POINT('Ctrl Pts',(64.0790957229617,-127.295979232012,39.3611766098817));
#784=CARTESIAN_POINT('Ctrl Pts',(64.0898022253376,-127.363235832004,39.3533692945553));
#785=CARTESIAN_POINT('Ctrl Pts',(64.1426684001277,-127.596290434189,39.3145271715618));
#786=CARTESIAN_POINT('Ctrl Pts',(64.2069907332765,-127.751521141384,39.2669002055953));
#787=CARTESIAN_POINT('Ctrl Pts',(64.3686127786493,-128.040127478808,39.142350891304));
#788=CARTESIAN_POINT('Ctrl Pts',(64.4675003154641,-128.173132658713,39.0639376320158));
#789=CARTESIAN_POINT('Ctrl Pts',(64.7524141676972,-128.494043664571,38.8262192200002));
#790=CARTESIAN_POINT('Ctrl Pts',(64.9647041814021,-128.668773917868,38.6371647418946));
#791=CARTESIAN_POINT('Ctrl Pts',(65.4157308689494,-128.951256734404,38.1780864124482));
#792=CARTESIAN_POINT('Ctrl Pts',(65.6551074795704,-129.051706438779,37.9015538830584));
#793=CARTESIAN_POINT('Ctrl Pts',(66.0159344262598,-129.112260864184,37.3861931590583));
#794=CARTESIAN_POINT('Ctrl Pts',(66.152700430458,-129.103520198318,37.1563174809299));
#795=CARTESIAN_POINT('Ctrl Pts',(66.3586482251143,-129.004154873626,36.7234735165183));
#796=CARTESIAN_POINT('Ctrl Pts',(66.4322366697826,-128.927444603524,36.5274266794198));
#797=CARTESIAN_POINT('Ctrl Pts',(66.5373112416213,-128.709409198883,36.1637118757852));
#798=CARTESIAN_POINT('Ctrl Pts',(66.5688633939739,-128.574941595468,36.0018724149352));
#799=CARTESIAN_POINT('Ctrl Pts',(66.6062143949786,-128.2667807411,35.7329053071069));
#800=CARTESIAN_POINT('Ctrl Pts',(66.6134780488522,-128.099259023688,35.6255701446297));
#801=CARTESIAN_POINT('Ctrl Pts',(66.6194880911533,-127.77982908005,35.482360187607));
#802=CARTESIAN_POINT('Ctrl Pts',(66.6197946836548,-127.634478756039,35.436220653417));
#803=CARTESIAN_POINT('Ctrl Pts',(66.6198358268366,-127.414380147952,35.3930414184397));
#804=CARTESIAN_POINT('Ctrl Pts',(66.6197658144499,-127.34266922172,35.3829851108315));
#805=CARTESIAN_POINT('Ctrl Pts',(66.6196918407332,-127.233800170101,35.3736860634573));
#806=CARTESIAN_POINT('Ctrl Pts',(66.6196710509324,-127.196903610121,35.3715649447158));
#807=CARTESIAN_POINT('Ctrl Pts',(66.6196516321992,-127.130619043581,35.3695900093057));
#808=CARTESIAN_POINT('Ctrl Pts',(66.619649255036,-127.101243204579,35.3693638212912));
#809=CARTESIAN_POINT('Ctrl Pts',(66.6196581558808,-127.039093325636,35.3702508897113));
#810=CARTESIAN_POINT('Ctrl Pts',(66.6196711414736,-127.006334858153,35.3715264490067));
#811=CARTESIAN_POINT('Ctrl Pts',(66.6197200193756,-126.919959376981,35.3770132346578));
#812=CARTESIAN_POINT('Ctrl Pts',(66.6197665272335,-126.866484013582,35.3825864094914));
#813=CARTESIAN_POINT('Ctrl Pts',(66.6198889442918,-126.65462038041,35.4133163844032));
#814=CARTESIAN_POINT('Ctrl Pts',(66.6199660005974,-126.499475065135,35.4553199444436));
#815=CARTESIAN_POINT('Ctrl Pts',(66.6152071809663,-126.144282531161,35.5988288216573));
#816=CARTESIAN_POINT('Ctrl Pts',(66.6084796865943,-125.953448518306,35.7162671897736));
#817=CARTESIAN_POINT('Ctrl Pts',(66.5664263830283,-125.605180180259,36.0197726360375));
#818=CARTESIAN_POINT('Ctrl Pts',(66.5287469690487,-125.456945093297,36.206345601336));
#819=CARTESIAN_POINT('Ctrl Pts',(66.3980874450083,-125.227432394445,36.6264603695207));
#820=CARTESIAN_POINT('Ctrl Pts',(66.3051819894437,-125.155602146699,36.8512647759824));
#821=CARTESIAN_POINT('Ctrl Pts',(66.0365683166127,-125.07946130267,37.3623053216863));
#822=CARTESIAN_POINT('Ctrl Pts',(65.8500036740626,-125.1016780495,37.6380713141276));
#823=CARTESIAN_POINT('Ctrl Pts',(65.4160592159461,-125.2480150116,38.1828547216265));
#824=CARTESIAN_POINT('Ctrl Pts',(65.1567682596695,-125.392274726198,38.4511045259572));
#825=CARTESIAN_POINT('Ctrl Pts',(64.7490447499983,-125.718087754748,38.8291425241795));
#826=CARTESIAN_POINT('Ctrl Pts',(64.584717907274,-125.879075012034,38.9683984708804));
#827=CARTESIAN_POINT('Ctrl Pts',(64.3529645562258,-126.187852500051,39.1548572608695));
#828=CARTESIAN_POINT('Ctrl Pts',(64.270162716031,-126.322619975227,39.2186126545154));
#829=CARTESIAN_POINT('Ctrl Pts',(64.1559262267644,-126.581790076008,39.3047776566913));
#830=CARTESIAN_POINT('Ctrl Pts',(64.1172351759024,-126.700706060482,39.3332517164371));
#831=CARTESIAN_POINT('Ctrl Pts',(64.0832812756908,-126.879760148885,39.3581267574546));
#832=CARTESIAN_POINT('Ctrl Pts',(64.0759226713372,-126.934863679924,39.3634899103255));
#833=CARTESIAN_POINT('Ctrl Pts',(64.0700857242923,-127.012072437952,39.3677420919109));
#834=CARTESIAN_POINT('Ctrl Pts',(64.0689333150157,-127.033684943916,39.3685809316329));
#835=CARTESIAN_POINT('Ctrl Pts',(64.0677952637486,-127.07036925068,39.3694092596902));
#836=CARTESIAN_POINT('Ctrl Pts',(64.0675622798665,-127.08541918866,39.3695787906647));
#837=CARTESIAN_POINT('Ctrl Pts',(64.0675622798665,-127.100454322812,39.3695787906647));
#838=CARTESIAN_POINT('Origin',(76.6823974727321,-127.100454322812,9.92957879066467));
#839=CARTESIAN_POINT('',(76.6823974727321,-127.100454322812,11.9295787906647));
#840=CARTESIAN_POINT('Origin',(76.6823974727321,-127.100454322812,9.92957879066467));
#841=CARTESIAN_POINT('',(66.6196514059257,-127.100454322812,11.9295787906647));
#842=CARTESIAN_POINT('',(76.6823974727321,-127.100454322812,11.9295787906647));
#843=CARTESIAN_POINT('',(64.0675622798665,-127.100454322812,7.92957879066467));
#844=CARTESIAN_POINT('Ctrl Pts',(64.0675622798665,-127.100454322812,7.92957879066467));
#845=CARTESIAN_POINT('Ctrl Pts',(64.0675622798665,-127.097883450921,7.92957879066467));
#846=CARTESIAN_POINT('Ctrl Pts',(64.0675690916379,-127.095312602774,7.92958374769288));
#847=CARTESIAN_POINT('Ctrl Pts',(64.067665557957,-127.077108471175,7.92965394823156));
#848=CARTESIAN_POINT('Ctrl Pts',(64.0680001463317,-127.061502867887,7.92989741957075));
#849=CARTESIAN_POINT('Ctrl Pts',(64.0694943037187,-127.021625766294,7.9309850283671));
#850=CARTESIAN_POINT('Ctrl Pts',(64.0710104566818,-126.997410917654,7.93208878210078));
#851=CARTESIAN_POINT('Ctrl Pts',(64.0790957229619,-126.904929413611,7.93798097144782));
#852=CARTESIAN_POINT('Ctrl Pts',(64.089802225338,-126.837672813619,7.94578828677435));
#853=CARTESIAN_POINT('Ctrl Pts',(64.1426684001289,-126.604618211431,7.98463040976843));
#854=CARTESIAN_POINT('Ctrl Pts',(64.2069907332788,-126.449387504237,8.03225737573575));
#855=CARTESIAN_POINT('Ctrl Pts',(64.3686127786517,-126.160781166812,8.1568066900272));
#856=CARTESIAN_POINT('Ctrl Pts',(64.467500315467,-126.027775986908,8.23521994931597));
#857=CARTESIAN_POINT('Ctrl Pts',(64.7524141677033,-125.706864981047,8.47293836133431));
#858=CARTESIAN_POINT('Ctrl Pts',(64.9647041814098,-125.532134727752,8.66199283944245));
#859=CARTESIAN_POINT('Ctrl Pts',(65.4157308689572,-125.249651911216,9.12107116888912));
#860=CARTESIAN_POINT('Ctrl Pts',(65.6551074795772,-125.149202206845,9.3976036982804));
#861=CARTESIAN_POINT('Ctrl Pts',(66.0159344262647,-125.08864778144,9.91296442227814));
#862=CARTESIAN_POINT('Ctrl Pts',(66.1527004304616,-125.097388447308,10.1428401004069));
#863=CARTESIAN_POINT('Ctrl Pts',(66.3586482251172,-125.196753772,10.5756840648173));
#864=CARTESIAN_POINT('Ctrl Pts',(66.4322366697844,-125.273464042104,10.7717309019155));
#865=CARTESIAN_POINT('Ctrl Pts',(66.5373112416228,-125.491499446745,11.1354457055498));
#866=CARTESIAN_POINT('Ctrl Pts',(66.5688633939746,-125.625967050162,11.2972851663987));
#867=CARTESIAN_POINT('Ctrl Pts',(66.6062143949791,-125.93412790453,11.5662522742266));
#868=CARTESIAN_POINT('Ctrl Pts',(66.6134780488523,-126.101649621943,11.6735874367023));
#869=CARTESIAN_POINT('Ctrl Pts',(66.6194880911533,-126.421079565579,11.8167973937243));
#870=CARTESIAN_POINT('Ctrl Pts',(66.6197946836548,-126.56642988959,11.8629369279132));
#871=CARTESIAN_POINT('Ctrl Pts',(66.6198358268366,-126.786528497675,11.9061161628901));
#872=CARTESIAN_POINT('Ctrl Pts',(66.6197658144499,-126.858239423907,11.9161724704981));
#873=CARTESIAN_POINT('Ctrl Pts',(66.6196918407332,-126.967108475525,11.9254715178722));
#874=CARTESIAN_POINT('Ctrl Pts',(66.6196710509324,-127.004005035505,11.9275926366136));
#875=CARTESIAN_POINT('Ctrl Pts',(66.6196544245651,-127.060758044906,11.9292835811841));
#876=CARTESIAN_POINT('Ctrl Pts',(66.6196514059257,-127.080614610333,11.9295787906647));
#877=CARTESIAN_POINT('Ctrl Pts',(66.6196514059257,-127.100454322812,11.9295787906647));
#878=CARTESIAN_POINT('Ctrl Pts',(66.6196514059257,-127.100454322812,11.9295787906647));
#879=CARTESIAN_POINT('Ctrl Pts',(66.6196514059257,-127.109972840889,11.9295787906647));
#880=CARTESIAN_POINT('Ctrl Pts',(66.6196520938652,-127.11948747975,11.9295108390598));
#881=CARTESIAN_POINT('Ctrl Pts',(66.6196581558808,-127.16181531999,11.928906691618));
#882=CARTESIAN_POINT('Ctrl Pts',(66.6196711414736,-127.194573787473,11.9276311323226));
#883=CARTESIAN_POINT('Ctrl Pts',(66.6197200193756,-127.280949268646,11.9221443466715));
#884=CARTESIAN_POINT('Ctrl Pts',(66.6197665272335,-127.334424632044,11.9165711718377));
#885=CARTESIAN_POINT('Ctrl Pts',(66.6198889442918,-127.546288265219,11.8858411969256));
#886=CARTESIAN_POINT('Ctrl Pts',(66.6199660005974,-127.701433580494,11.8438376368841));
#887=CARTESIAN_POINT('Ctrl Pts',(66.6152071809662,-128.05662611447,11.7003287596696));
#888=CARTESIAN_POINT('Ctrl Pts',(66.6084796865937,-128.247460127324,11.5828903915516));
#889=CARTESIAN_POINT('Ctrl Pts',(66.5664263830277,-128.595728465371,11.2793849452874));
#890=CARTESIAN_POINT('Ctrl Pts',(66.5287469690469,-128.743963552331,11.0928119799876));
#891=CARTESIAN_POINT('Ctrl Pts',(66.3980874450064,-128.973476251183,10.6726972118026));
#892=CARTESIAN_POINT('Ctrl Pts',(66.3051819894404,-129.045306498926,10.4478928053406));
#893=CARTESIAN_POINT('Ctrl Pts',(66.0365683166084,-129.121447342955,9.93685225963493));
#894=CARTESIAN_POINT('Ctrl Pts',(65.8500036740569,-129.099230596123,9.66108626719454));
#895=CARTESIAN_POINT('Ctrl Pts',(65.4160592159395,-128.952893634022,9.11630285969465));
#896=CARTESIAN_POINT('Ctrl Pts',(65.1567682596628,-128.808633919421,8.84805305536587));
#897=CARTESIAN_POINT('Ctrl Pts',(64.7490447499935,-128.482820890873,8.47001505714551));
#898=CARTESIAN_POINT('Ctrl Pts',(64.58471790727,-128.321833633585,8.33075911044573));
#899=CARTESIAN_POINT('Ctrl Pts',(64.3529645562232,-128.01305614557,8.14430032045781));
#900=CARTESIAN_POINT('Ctrl Pts',(64.2701627160291,-127.878288670394,8.08054492681261));
#901=CARTESIAN_POINT('Ctrl Pts',(64.155926226763,-127.619118569613,7.99437992463706));
#902=CARTESIAN_POINT('Ctrl Pts',(64.1172351759018,-127.500202585139,7.96590586489175));
#903=CARTESIAN_POINT('Ctrl Pts',(64.0832812756905,-127.321148496738,7.94103082387456));
#904=CARTESIAN_POINT('Ctrl Pts',(64.0759226713371,-127.2660449657,7.93566767100375));
#905=CARTESIAN_POINT('Ctrl Pts',(64.0700857242922,-127.188836207672,7.93141548941842));
#906=CARTESIAN_POINT('Ctrl Pts',(64.0689333150157,-127.167223701708,7.93057664969639));
#907=CARTESIAN_POINT('Ctrl Pts',(64.0677952637486,-127.130539394945,7.92974832163915));
#908=CARTESIAN_POINT('Ctrl Pts',(64.0675622798665,-127.115489456965,7.92957879066467));
#909=CARTESIAN_POINT('Ctrl Pts',(64.0675622798665,-127.100454322812,7.92957879066467));
#910=CARTESIAN_POINT('Origin',(59.4227785294986,-126.600454322812,5.92957879066467));
#911=CARTESIAN_POINT('',(53.4272180417602,-126.831223553582,5.92957879066467));
#912=CARTESIAN_POINT('',(59.4227785294986,-120.600454322812,5.92957879066467));
#913=CARTESIAN_POINT('Origin',(59.4227785294986,-126.600454322812,5.92957879066467));
#914=CARTESIAN_POINT('',(59.4227785294986,-120.600454322812,5.42957879066467));
#915=CARTESIAN_POINT('',(59.4227785294986,-120.600454322812,5.92957879066467));
#916=CARTESIAN_POINT('',(53.4272180417602,-126.831223553582,5.42957879066467));
#917=CARTESIAN_POINT('Origin',(59.4227785294986,-126.600454322812,5.42957879066467));
#918=CARTESIAN_POINT('',(53.4272180417602,-126.831223553582,5.92957879066467));
#919=CARTESIAN_POINT('Origin',(59.9323974727321,-127.100454322812,5.92957879066467));
#920=CARTESIAN_POINT('',(53.4272180417602,-127.369685092043,5.92957879066467));
#921=CARTESIAN_POINT('Origin',(46.4323974727321,-127.100454322812,5.92957879066467));
#922=CARTESIAN_POINT('',(59.4227785294986,-133.600454322812,5.92957879066467));
#923=CARTESIAN_POINT('Origin',(59.4227785294986,-127.600454322812,5.92957879066467));
#924=CARTESIAN_POINT('',(60.1918347958666,-133.600454322812,5.92957879066467));
#925=CARTESIAN_POINT('',(66.6823974727321,-133.600454322812,5.92957879066467));
#926=CARTESIAN_POINT('',(60.1918347958666,-120.600454322812,5.92957879066467));
#927=CARTESIAN_POINT('Origin',(73.4323974727321,-127.100454322812,5.92957879066467));
#928=CARTESIAN_POINT('',(53.1823974727321,-120.600454322812,5.92957879066467));
#929=CARTESIAN_POINT('Origin',(46.4323974727321,-127.100454322812,5.92957879066467));
#930=CARTESIAN_POINT('',(53.4272180417602,-127.369685092043,5.42957879066467));
#931=CARTESIAN_POINT('Origin',(46.4323974727321,-127.100454322812,5.42957879066467));
#932=CARTESIAN_POINT('',(53.4272180417602,-127.369685092043,5.92957879066467));
#933=CARTESIAN_POINT('Origin',(59.4227785294986,-127.600454322812,5.92957879066467));
#934=CARTESIAN_POINT('',(59.4227785294986,-133.600454322812,5.42957879066467));
#935=CARTESIAN_POINT('Origin',(59.4227785294986,-127.600454322812,5.42957879066467));
#936=CARTESIAN_POINT('',(59.4227785294986,-133.600454322812,5.92957879066467));
#937=CARTESIAN_POINT('Origin',(73.4323974727321,-133.600454322812,41.3695787906647));
#938=CARTESIAN_POINT('',(46.4323974727321,-133.600454322812,5.42957879066467));
#939=CARTESIAN_POINT('',(59.9323974727321,-133.600454322812,5.42957879066467));
#940=CARTESIAN_POINT('',(46.4323974727321,-133.600454322812,1.42957879066467));
#941=CARTESIAN_POINT('',(46.4323974727321,-133.600454322812,41.3695787906647));
#942=CARTESIAN_POINT('',(73.4323974727321,-133.600454322812,1.42957879066467));
#943=CARTESIAN_POINT('',(66.6823974727321,-133.600454322812,1.42957879066467));
#944=CARTESIAN_POINT('',(73.4323974727321,-133.600454322812,14.1795787906647));
#945=CARTESIAN_POINT('',(73.4323974727321,-133.600454322812,41.3695787906647));
#946=CARTESIAN_POINT('Ctrl Pts',(60.1918347958667,-133.600454322812,5.92957879066468));
#947=CARTESIAN_POINT('Ctrl Pts',(60.6666427505746,-133.600454322812,5.92957879066468));
#948=CARTESIAN_POINT('Ctrl Pts',(61.1867843159444,-133.600454322812,5.9648738376677));
#949=CARTESIAN_POINT('Ctrl Pts',(62.2162776212231,-133.600454322812,6.11295598608921));
#950=CARTESIAN_POINT('Ctrl Pts',(62.7256723212103,-133.600454322812,6.22544426757364));
#951=CARTESIAN_POINT('Ctrl Pts',(63.6962527924704,-133.600454322812,6.49914123498025));
#952=CARTESIAN_POINT('Ctrl Pts',(64.2487223091754,-133.600454322812,6.69447695072068));
#953=CARTESIAN_POINT('Ctrl Pts',(65.3219698598451,-133.600454322812,7.15963269326227));
#954=CARTESIAN_POINT('Ctrl Pts',(65.8429543994954,-133.600454322812,7.42897610728195));
#955=CARTESIAN_POINT('Ctrl Pts',(67.6187861725844,-133.600454322812,8.46199992705546));
#956=CARTESIAN_POINT('Ctrl Pts',(68.9161717857612,-133.600454322812,9.49300584598423));
#957=CARTESIAN_POINT('Ctrl Pts',(71.3135712354086,-133.600454322812,11.7879405311829));
#958=CARTESIAN_POINT('Ctrl Pts',(72.4228269889345,-133.600454322812,13.0421952456889));
#959=CARTESIAN_POINT('Ctrl Pts',(73.4323974727321,-133.600454322812,14.1795787906647));
#960=CARTESIAN_POINT('Origin',(46.4323974727321,-127.100454322812,5.92957879066467));
#961=CARTESIAN_POINT('',(44.1823974727321,-127.100454322812,5.42957879066467));
#962=CARTESIAN_POINT('Origin',(46.4323974727321,-127.100454322812,5.42957879066467));
#963=CARTESIAN_POINT('',(44.1823974727321,-127.100454322812,1.42957879066467));
#964=CARTESIAN_POINT('',(44.1823974727321,-127.100454322812,5.92957879066467));
#965=CARTESIAN_POINT('Origin',(46.4323974727321,-127.100454322812,1.42957879066467));
#966=CARTESIAN_POINT('Origin',(46.4323974727321,-127.100454322812,5.42957879066467));
#967=CARTESIAN_POINT('',(46.4323974727321,-120.600454322812,5.42957879066467));
#968=CARTESIAN_POINT('',(46.4323974727321,-120.600454322812,5.42957879066467));
#969=CARTESIAN_POINT('Origin',(46.4323974727321,-127.100454322812,5.42957879066467));
#970=CARTESIAN_POINT('Origin',(46.4323974727321,-120.600454322812,41.3695787906647));
#971=CARTESIAN_POINT('',(73.4323974727321,-120.600454322812,14.1795787906647));
#972=CARTESIAN_POINT('Ctrl Pts',(73.4323974727321,-120.600454322812,14.1795787906647));
#973=CARTESIAN_POINT('Ctrl Pts',(72.4228269889345,-120.600454322812,13.0421952456889));
#974=CARTESIAN_POINT('Ctrl Pts',(71.3135712354086,-120.600454322812,11.7879405311829));
#975=CARTESIAN_POINT('Ctrl Pts',(68.9161717857612,-120.600454322812,9.49300584598423));
#976=CARTESIAN_POINT('Ctrl Pts',(67.6187861725844,-120.600454322812,8.46199992705546));
#977=CARTESIAN_POINT('Ctrl Pts',(65.8429543994954,-120.600454322812,7.42897610728195));
#978=CARTESIAN_POINT('Ctrl Pts',(65.3219698598451,-120.600454322812,7.15963269326227));
#979=CARTESIAN_POINT('Ctrl Pts',(64.2487223091754,-120.600454322812,6.69447695072067));
#980=CARTESIAN_POINT('Ctrl Pts',(63.6962527924704,-120.600454322812,6.49914123498025));
#981=CARTESIAN_POINT('Ctrl Pts',(62.7256723212103,-120.600454322812,6.22544426757364));
#982=CARTESIAN_POINT('Ctrl Pts',(62.2162776212231,-120.600454322812,6.11295598608921));
#983=CARTESIAN_POINT('Ctrl Pts',(61.1867843159444,-120.600454322812,5.9648738376677));
#984=CARTESIAN_POINT('Ctrl Pts',(60.6666427505746,-120.600454322812,5.92957879066468));
#985=CARTESIAN_POINT('Ctrl Pts',(60.1918347958666,-120.600454322812,5.92957879066468));
#986=CARTESIAN_POINT('',(73.4323974727321,-120.600454322812,1.42957879066467));
#987=CARTESIAN_POINT('',(73.4323974727321,-120.600454322812,41.3695787906647));
#988=CARTESIAN_POINT('',(46.4323974727321,-120.600454322812,1.42957879066467));
#989=CARTESIAN_POINT('',(53.1823974727321,-120.600454322812,1.42957879066467));
#990=CARTESIAN_POINT('',(46.4323974727321,-120.600454322812,41.3695787906647));
#991=CARTESIAN_POINT('Origin',(73.4323974727321,-127.100454322812,33.1195787906647));
#992=CARTESIAN_POINT('',(60.1918347958666,-120.600454322812,41.3695787906647));
#993=CARTESIAN_POINT('',(73.4323974727321,-120.600454322812,33.1195787906647));
#994=CARTESIAN_POINT('Ctrl Pts',(60.1918347958666,-120.600454322812,41.3695787906647));
#995=CARTESIAN_POINT('Ctrl Pts',(60.6666427505746,-120.600454322812,41.3695787906647));
#996=CARTESIAN_POINT('Ctrl Pts',(61.1867843159444,-120.600454322812,41.3342837436617));
#997=CARTESIAN_POINT('Ctrl Pts',(62.2162776212231,-120.600454322812,41.1862015952401));
#998=CARTESIAN_POINT('Ctrl Pts',(62.7256723212103,-120.600454322812,41.0737133137557));
#999=CARTESIAN_POINT('Ctrl Pts',(63.6962527924704,-120.600454322812,40.8000163463491));
#1000=CARTESIAN_POINT('Ctrl Pts',(64.2487223091754,-120.600454322812,40.6046806306087));
#1001=CARTESIAN_POINT('Ctrl Pts',(65.3219698598451,-120.600454322812,40.1395248880671));
#1002=CARTESIAN_POINT('Ctrl Pts',(65.8429543994954,-120.600454322812,39.8701814740474));
#1003=CARTESIAN_POINT('Ctrl Pts',(67.6187861725844,-120.600454322812,38.8371576542739));
#1004=CARTESIAN_POINT('Ctrl Pts',(68.9161717857612,-120.600454322812,37.8061517353451));
#1005=CARTESIAN_POINT('Ctrl Pts',(71.3135712354086,-120.600454322812,35.5112170501465));
#1006=CARTESIAN_POINT('Ctrl Pts',(72.4228269889345,-120.600454322812,34.2569623356404));
#1007=CARTESIAN_POINT('Ctrl Pts',(73.4323974727321,-120.600454322812,33.1195787906647));
#1008=CARTESIAN_POINT('',(73.4323974727321,-133.600454322812,33.1195787906647));
#1009=CARTESIAN_POINT('Origin',(73.4323974727321,-127.100454322812,33.1195787906647));
#1010=CARTESIAN_POINT('',(60.1918347958666,-133.600454322812,41.3695787906647));
#1011=CARTESIAN_POINT('Ctrl Pts',(73.4323974727321,-133.600454322812,33.1195787906647));
#1012=CARTESIAN_POINT('Ctrl Pts',(72.4228269889345,-133.600454322812,34.2569623356404));
#1013=CARTESIAN_POINT('Ctrl Pts',(71.3135712354086,-133.600454322812,35.5112170501465));
#1014=CARTESIAN_POINT('Ctrl Pts',(68.9161717857612,-133.600454322812,37.8061517353451));
#1015=CARTESIAN_POINT('Ctrl Pts',(67.6187861725844,-133.600454322812,38.8371576542739));
#1016=CARTESIAN_POINT('Ctrl Pts',(65.8429543994954,-133.600454322812,39.8701814740474));
#1017=CARTESIAN_POINT('Ctrl Pts',(65.3219698598451,-133.600454322812,40.1395248880671));
#1018=CARTESIAN_POINT('Ctrl Pts',(64.2487223091754,-133.600454322812,40.6046806306087));
#1019=CARTESIAN_POINT('Ctrl Pts',(63.6962527924704,-133.600454322812,40.8000163463491));
#1020=CARTESIAN_POINT('Ctrl Pts',(62.7256723212103,-133.600454322812,41.0737133137557));
#1021=CARTESIAN_POINT('Ctrl Pts',(62.2162776212231,-133.600454322812,41.1862015952401));
#1022=CARTESIAN_POINT('Ctrl Pts',(61.1867843159444,-133.600454322812,41.3342837436617));
#1023=CARTESIAN_POINT('Ctrl Pts',(60.6666427505746,-133.600454322812,41.3695787906647));
#1024=CARTESIAN_POINT('Ctrl Pts',(60.1918347958666,-133.600454322812,41.3695787906647));
#1025=CARTESIAN_POINT('Origin',(73.4323974727321,-127.100454322812,41.3695787906647));
#1026=CARTESIAN_POINT('Origin',(73.4323974727321,-127.100454322812,41.3695787906647));
#1027=CARTESIAN_POINT('',(73.4323974727321,-133.600454322812,45.6195787906647));
#1028=CARTESIAN_POINT('',(73.4323974727321,-133.600454322812,41.3695787906647));
#1029=CARTESIAN_POINT('',(73.4323974727321,-120.600454322812,41.3695787906647));
#1030=CARTESIAN_POINT('Origin',(73.4323974727321,-127.100454322812,14.1795787906647));
#1031=CARTESIAN_POINT('Origin',(73.4323974727321,-127.100454322812,1.42957879066467));
#1032=CARTESIAN_POINT('',(73.4323974727321,-120.600454322812,45.6195787906647));
#1033=CARTESIAN_POINT('',(73.4323974727321,-120.600454322812,41.3695787906647));
#1034=CARTESIAN_POINT('Origin',(73.4323974727321,-127.100454322812,45.6195787906647));
#1035=CARTESIAN_POINT('',(76.6823974727321,-132.729619447411,5.92957879066467));
#1036=CARTESIAN_POINT('',(76.6823974727321,-121.471289198213,5.92957879066467));
#1037=CARTESIAN_POINT('Origin',(73.4323974727321,-127.100454322812,5.92957879066467));
#1038=CARTESIAN_POINT('',(76.6823974727321,-132.729619447411,41.3695787906647));
#1039=CARTESIAN_POINT('',(76.6823974727321,-132.729619447411,41.3695787906647));
#1040=CARTESIAN_POINT('',(76.6823974727321,-121.471289198213,41.3695787906647));
#1041=CARTESIAN_POINT('Origin',(73.4323974727321,-127.100454322812,41.3695787906647));
#1042=CARTESIAN_POINT('',(76.6823974727321,-121.471289198213,41.3695787906647));
#1043=CARTESIAN_POINT('Origin',(73.4323974727321,-127.100454322812,14.1795787906647));
#1044=CARTESIAN_POINT('Origin',(46.4323974727321,-127.100454322812,41.3695787906647));
#1045=CARTESIAN_POINT('Origin',(46.4323974727321,-127.100454322812,1.42957879066467));
#1046=CARTESIAN_POINT('Origin',(59.9323974727321,-127.100454322812,5.92957879066467));
#1047=CARTESIAN_POINT('',(76.6823974727321,-124.285871760513,5.92957879066468));
#1048=CARTESIAN_POINT('Origin',(76.6823974727321,-121.471289198213,41.3695787906647));
#1049=CARTESIAN_POINT('',(76.6823974727321,-124.285871760513,41.3695787906647));
#1050=CARTESIAN_POINT('Origin',(59.9323974727321,-127.100454322812,41.3695787906647));
#1051=CARTESIAN_POINT('Origin',(59.9323974727321,-127.100454322812,41.3695787906647));
#1052=CARTESIAN_POINT('',(46.4323974727321,-133.600454322812,41.3695787906647));
#1053=CARTESIAN_POINT('',(46.4323974727321,-133.600454322812,41.3695787906647));
#1054=CARTESIAN_POINT('',(46.4323974727321,-120.600454322812,41.3695787906647));
#1055=CARTESIAN_POINT('Origin',(46.4323974727321,-127.100454322812,41.3695787906647));
#1056=CARTESIAN_POINT('',(73.4323974727321,-120.600454322812,41.3695787906647));
#1057=CARTESIAN_POINT('',(49.9323974727321,-127.100454322812,41.3695787906647));
#1058=CARTESIAN_POINT('Origin',(46.4323974727321,-127.100454322812,41.3695787906647));
#1059=CARTESIAN_POINT('Origin',(46.4323974727321,-127.100454322812,41.3695787906647));
#1060=CARTESIAN_POINT('',(46.8341831870178,-123.372040686989,43.6195787906647));
#1061=CARTESIAN_POINT('',(46.8341831870178,-130.828867958636,43.6195787906647));
#1062=CARTESIAN_POINT('Origin',(46.4323974727321,-127.100454322812,43.6195787906647));
#1063=CARTESIAN_POINT('',(46.8341831870178,-123.372040686989,45.6195787906647));
#1064=CARTESIAN_POINT('',(46.8341831870178,-123.372040686989,41.3695787906647));
#1065=CARTESIAN_POINT('',(46.8341831870178,-130.828867958636,45.6195787906647));
#1066=CARTESIAN_POINT('Origin',(46.4323974727321,-127.100454322812,45.6195787906647));
#1067=CARTESIAN_POINT('',(46.8341831870178,-130.828867958636,41.3695787906647));
#1068=CARTESIAN_POINT('Origin',(46.8341831870178,-123.372040686989,41.3695787906647));
#1069=CARTESIAN_POINT('',(60.6734689012919,-124.863406141318,43.6195787906647));
#1070=CARTESIAN_POINT('',(53.5066959421198,-124.091091888184,43.6195787906647));
#1071=CARTESIAN_POINT('',(60.6734689012919,-124.863406141318,45.6195787906647));
#1072=CARTESIAN_POINT('',(60.6734689012919,-124.863406141318,41.3695787906647));
#1073=CARTESIAN_POINT('',(46.8341831870178,-123.372040686989,45.6195787906647));
#1074=CARTESIAN_POINT('Origin',(60.6734689014374,-129.33750250431,41.3695787906647));
#1075=CARTESIAN_POINT('',(60.6734689014374,-129.33750250431,43.6195787906647));
#1076=CARTESIAN_POINT('',(60.4263387993291,-129.364134030287,43.6195787906647));
#1077=CARTESIAN_POINT('',(60.6734689014374,-129.33750250431,45.6195787906647));
#1078=CARTESIAN_POINT('',(60.6734689014374,-129.33750250431,45.6195787906647));
#1079=CARTESIAN_POINT('',(60.6734689014374,-129.33750250431,41.3695787906647));
#1080=CARTESIAN_POINT('Origin',(60.4323974727321,-127.100454322812,41.3695787906647));
#1081=CARTESIAN_POINT('Origin',(60.4323974727321,-127.100454322812,43.6195787906647));
#1082=CARTESIAN_POINT('Origin',(60.4323974727321,-127.100454322812,45.6195787906647));
#1083=CARTESIAN_POINT('Origin',(59.9323974727321,-127.100454322812,45.6195787906647));
#1084=CARTESIAN_POINT('',(46.4323974727321,-120.600454322812,45.6195787906647));
#1085=CARTESIAN_POINT('',(73.4323974727321,-120.600454322812,45.6195787906647));
#1086=CARTESIAN_POINT('',(46.4323974727321,-133.600454322812,45.6195787906647));
#1087=CARTESIAN_POINT('Origin',(46.4323974727321,-127.100454322812,45.6195787906647));
#1088=CARTESIAN_POINT('',(46.4323974727321,-133.600454322812,45.6195787906647));
#1089=CARTESIAN_POINT('Origin',(46.4323974727321,-127.100454322812,41.3695787906647));
#1090=CARTESIAN_POINT('',(49.9323974727321,-127.100454322812,43.6195787906647));
#1091=CARTESIAN_POINT('Origin',(46.4323974727321,-127.100454322812,43.6195787906647));
#1092=CARTESIAN_POINT('',(49.9323974727321,-127.100454322812,41.3695787906647));
#1093=CARTESIAN_POINT('Origin',(46.4323974727321,-133.600454322812,41.3695787906647));
#1094=CARTESIAN_POINT('',(46.4323974727321,-133.600454322812,41.3695787906647));
#1095=CARTESIAN_POINT('Origin',(46.4323974727321,-127.100454322812,41.3695787906647));
#1096=CARTESIAN_POINT('',(46.4323974727321,-120.600454322812,41.3695787906647));
#1097=CARTESIAN_POINT('Origin',(73.4323974727321,-120.600454322812,41.3695787906647));
#1098=CARTESIAN_POINT('Origin',(59.9323974727321,-127.100454322812,43.6195787906647));
#1099=CARTESIAN_POINT('Origin',(59.9323974727321,-127.100454322812,1.42957879066467));
#1100=UNCERTAINTY_MEASURE_WITH_UNIT(LENGTH_MEASURE(0.01),#1104,
'DISTANCE_ACCURACY_VALUE',
'Maximum model space distance between geometric entities at asserted c
onnectivities');
#1101=UNCERTAINTY_MEASURE_WITH_UNIT(LENGTH_MEASURE(0.01),#1104,
'DISTANCE_ACCURACY_VALUE',
'Maximum model space distance between geometric entities at asserted c
onnectivities');
#1102=(
GEOMETRIC_REPRESENTATION_CONTEXT(3)
GLOBAL_UNCERTAINTY_ASSIGNED_CONTEXT((#1100))
GLOBAL_UNIT_ASSIGNED_CONTEXT((#1104,#1106,#1107))
REPRESENTATION_CONTEXT('','3D')
);
#1103=(
GEOMETRIC_REPRESENTATION_CONTEXT(3)
GLOBAL_UNCERTAINTY_ASSIGNED_CONTEXT((#1101))
GLOBAL_UNIT_ASSIGNED_CONTEXT((#1104,#1106,#1107))
REPRESENTATION_CONTEXT('','3D')
);
#1104=(
LENGTH_UNIT()
NAMED_UNIT(*)
SI_UNIT(.MILLI.,.METRE.)
);
#1105=(
LENGTH_UNIT()
NAMED_UNIT(*)
SI_UNIT(.CENTI.,.METRE.)
);
#1106=(
NAMED_UNIT(*)
PLANE_ANGLE_UNIT()
SI_UNIT($,.RADIAN.)
);
#1107=(
NAMED_UNIT(*)
SI_UNIT($,.STERADIAN.)
SOLID_ANGLE_UNIT()
);
#1108=SHAPE_DEFINITION_REPRESENTATION(#1109,#1110);
#1109=PRODUCT_DEFINITION_SHAPE('',$,#1112);
#1110=SHAPE_REPRESENTATION('',(#557),#1102);
#1111=PRODUCT_DEFINITION_CONTEXT('part definition',#1116,'design');
#1112=PRODUCT_DEFINITION('body_d_L_Screws','body_d_L_Screws',#1113,#1111);
#1113=PRODUCT_DEFINITION_FORMATION('',$,#1118);
#1114=PRODUCT_RELATED_PRODUCT_CATEGORY('body_d_L_Screws',
'body_d_L_Screws',(#1118));
#1115=APPLICATION_PROTOCOL_DEFINITION('international standard',
'automotive_design',2009,#1116);
#1116=APPLICATION_CONTEXT(
'Core Data for Automotive Mechanical Design Process');
#1117=PRODUCT_CONTEXT('part definition',#1116,'mechanical');
#1118=PRODUCT('body_d_L_Screws','body_d_L_Screws',$,(#1117));
#1119=PRESENTATION_STYLE_ASSIGNMENT((#1123));
#1120=PRESENTATION_STYLE_ASSIGNMENT((#1124));
#1121=PRESENTATION_STYLE_ASSIGNMENT((#1125));
#1122=PRESENTATION_STYLE_ASSIGNMENT((#1126));
#1123=SURFACE_STYLE_USAGE(.BOTH.,#1135);
#1124=SURFACE_STYLE_USAGE(.BOTH.,#1136);
#1125=SURFACE_STYLE_USAGE(.BOTH.,#1137);
#1126=SURFACE_STYLE_USAGE(.BOTH.,#1138);
#1127=SURFACE_STYLE_RENDERING_WITH_PROPERTIES($,#1151,(#1131));
#1128=SURFACE_STYLE_RENDERING_WITH_PROPERTIES($,#1152,(#1132));
#1129=SURFACE_STYLE_RENDERING_WITH_PROPERTIES($,#1153,(#1133));
#1130=SURFACE_STYLE_RENDERING_WITH_PROPERTIES($,#1154,(#1134));
#1131=SURFACE_STYLE_TRANSPARENT(0.);
#1132=SURFACE_STYLE_TRANSPARENT(0.);
#1133=SURFACE_STYLE_TRANSPARENT(0.);
#1134=SURFACE_STYLE_TRANSPARENT(0.);
#1135=SURFACE_SIDE_STYLE('',(#1139,#1127));
#1136=SURFACE_SIDE_STYLE('',(#1140,#1128));
#1137=SURFACE_SIDE_STYLE('',(#1141,#1129));
#1138=SURFACE_SIDE_STYLE('',(#1142,#1130));
#1139=SURFACE_STYLE_FILL_AREA(#1143);
#1140=SURFACE_STYLE_FILL_AREA(#1144);
#1141=SURFACE_STYLE_FILL_AREA(#1145);
#1142=SURFACE_STYLE_FILL_AREA(#1146);
#1143=FILL_AREA_STYLE('',(#1147));
#1144=FILL_AREA_STYLE('',(#1148));
#1145=FILL_AREA_STYLE('',(#1149));
#1146=FILL_AREA_STYLE('',(#1150));
#1147=FILL_AREA_STYLE_COLOUR('',#1151);
#1148=FILL_AREA_STYLE_COLOUR('',#1152);
#1149=FILL_AREA_STYLE_COLOUR('',#1153);
#1150=FILL_AREA_STYLE_COLOUR('',#1154);
#1151=COLOUR_RGB('',0.749019607843137,0.749019607843137,0.749019607843137);
#1152=COLOUR_RGB('',0.419607843137255,0.419607843137255,0.419607843137255);
#1153=COLOUR_RGB('',0.949019607843137,0.949019607843137,1.);
#1154=COLOUR_RGB('',0.,0.,0.);
ENDSEC;
END-ISO-10303-21;
